<?xml version="1.0" encoding="UTF-8"?>
<svg id="Layer_1" data-name="Layer 1" xmlns="http://www.w3.org/2000/svg" viewBox="0 0 917.71185 474.95477">
  <path d="M229.28053,65.79311c1.64525-1.64525,2.21738-3.32471,3.66948-5.49537,19.76782-29.55006,58.50946-27.95869,75.65097,3.16667,8.2291,14.94237,10.63495,30.74718,4.87164,47.21443-.97958,2.79901-2.07053,5.95822-4.10797,7.90842-4.9151,4.70462-5.84271,10.64206-7.2442,16.80905-4.02213,17.69882-17.06522,28.22153-35.22964,28.99384-2.17926,.09265-3.41116,.24976-3.33551,2.87827,1.37427,47.75601,5.18027,95.15555,20.33545,140.91956,.19528,.58966,.59424,1.11194,1.33405,2.4599,.48059-9.186,.74908-17.53632,1.3826-25.85886,2.49167-32.73465,9.58334-64.22049,26.20773-92.95279,9.56494-16.53134,21.70242-30.77347,38.45499-40.49164,10.33923-5.99783,21.30392-9.57504,33.43469-6.6698,2.11545,.50662,3.095-.11697,3.85202-1.90063,5.20258-12.25806,10.39294-24.52151,15.67581-36.74496,.88385-2.04504,.07904-3.48322-.9631-5.05508-12.36151-18.6447-11.27182-37.24234,.16116-55.84052,7.60388-12.36938,16.72516-23.13112,29.61789-30.44833,18.3934-10.43906,51.85242-8.21286,66.65564,10.54123,1.34534-2.65367,2.57861-5.09595,3.82025-7.53395,6.41046-12.58705,15.95209-17.31013,30.08551-16.9962,9.7818,.21729,19.67688-.22774,29.48602-.55359,14.04944-.46671,28.70563,1.05263,38.03387,14.39807,1.67944,2.4028,3.15076,2.15741,5.3573,1.35429,12.82831-4.66914,25.67865-9.27856,38.53735-13.86366,13.42322-4.78636,23.57666-1.16429,30.20221,11.39253,1.91455,3.62848,3.58594,3.64087,6.87268,2.42107,12.79785-4.74965,25.68866-9.24901,38.54639-13.83719,13.3327-4.75766,23.48828-.89726,30.05188,11.71701,6.33112,12.16737,7.00659,25.19574,5.14166,38.48735-1.98083,14.11693-6.69019,27.14618-15.98358,38.19539-7.04443,8.37555-15.56085,12.80362-27.08441,11.91916-18.60022-1.42767-37.27386-1.89938-55.91669-2.77045-.83008-.03876-1.81482-.33521-2.4704-.00348-8.85791,4.48154-18.31689,2.56067-27.54633,2.46817-3.64771-.03656-4.7243,1.25024-5.60199,4.52725-11.54541,43.10846-23.62494,86.05939-39.61597,127.79001-5.18591,13.53348-10.86719,26.85098-17.87018,39.57074-.43597,.79187-1.41333,1.52039-.65723,3.11646,3.12177-2.18393,6.16907-4.3353,9.23596-6.45853,52.11359-36.07864,105.77051-69.52576,163.62872-95.78647,15.17273-6.88663,30.63013-13.06674,46.56415-17.9863,2.46283-.76038,3.66907-1.58337,3.58008-4.72488-.23792-8.39883,5.7356-15.46799,13.48358-16.8779,8.08185-1.47073,15.9093,2.84427,18.979,10.46231,2.92377,7.25592,.17633,15.88062-6.45093,20.2507-6.89032,4.54358-15.47974,3.75522-21.35474-2.56967-2.20862-2.37769-3.94794-2.14566-6.50305-1.32785-33.45544,10.70831-64.92169,25.89627-95.6886,42.60712-42.2124,22.9274-82.52618,48.89575-121.71692,76.63449-1.04443,.73923-2.0022,1.60101-3.104,2.48923,1.72137,.84439,2.84851-.20309,4.01941-.65631,58.00964-22.45444,118.104-37.15613,179.21399-47.98401,54.0567-9.57816,108.47717-15.66342,163.45068-15.93573,8.41498-.04169,8.57043,.08768,5.31165,8.09421-10.24042,25.16016-28.92377,39.02652-55.96954,41.98935-12.57001,1.37701-24.9837,.34128-37.35107-1.42413-11.02246-1.57346-19.48865,2.24863-26.5025,10.49408-6.38483,7.50595-11.74609,15.75784-17.6402,23.61972-8.8725,11.83469-19.72528,20.72388-34.66595,23.62436-7.57391,1.47037-15.19531,1.84784-22.87988,1.00217-18.75824-2.06421-37.51581-3.55478-56.21094,.5831-10.53625,2.332-20.28473,6.4718-29.034,12.83014-1.25232,.91006-2.96741,1.46121-3.39587,3.2504,47.99951,2.59,89.94421,21.16605,128.66486,48.17123,9.68311,6.7533,18.33594,14.74512,25.05078,25.52142-96.52246-7.3042-192.31439-14.55304-288.10632-21.80194,51.58087,11.8703,99.16876,33.63159,146.01312,57.09808-.25073,2.20215-1.8775,2.66956-3.05176,3.42743-9.58496,6.18524-19.97626,9.91705-31.51074,9.72272-6.43311-.10834-12.56519,1.04749-18.55847,3.32294-7.49921,2.84723-15.26978,4.51398-23.20917,5.77393-10.12604,1.60699-19.12897-.79724-27.69873-5.90503-6.75104-4.02399-12.80872-9.00824-18.99249-13.79877-8.43042-6.53094-17.28766-9.6272-28.32373-7.52417-12.34979,2.35339-24.89636,1.57892-37.1102-2.03113-10.19281-3.0127-18.79572-8.35431-25.32166-16.89178-5.76627-7.5437-11.53867-15.08795-17.51953-22.46063-4.00226-4.93359-8.61011-9.31763-14.27399-12.36823-6.05411-3.26068-12.19702-4.45367-19.20349-2.53796-15.45462,4.22546-31.18008,5.28766-46.95578,1.61652-2.25726-.52527-3.81854-.0033-5.44397,1.3819-4.56516,3.89056-9.0748,7.85809-13.80182,11.54474-19.59402,15.28143-41.79538,20.6991-66.21622,16.79028-9.56982-1.53174-17.48657-6.31592-23.27283-14.24768-3.04146-4.16925-6.37509-8.21051-8.80702-12.7243-10.36937-19.24591-26.96274-24.86505-47.53543-22.66339-17.05833,1.8255-33.58316-.4444-49.29427-7.57684-7.80678-3.54419-14.83817-8.24426-20.74254-14.53452-8.12006-8.65088-13.01324-18.83096-11.90893-30.74789,.97808-10.55466-3.29251-16.70206-12.4006-21.38086-14.81836-7.61209-28.99297-16.40784-42.26633-26.54831-7.04104-5.37918-13.51183-11.37607-18.98394-18.38373-4.33845-5.55582-7.8945-11.53534-9.83873-18.38214-4.0511-14.26627,.27744-26.20514,12.78746-34.1442,15.65361-9.93408,32.93703-11.07547,50.62196-8.21255,26.80771,4.33975,49.25015,17.3403,67.65314,36.88608,9.19002,9.76071,19.92836,15.1785,32.75655,17.54419,6.54318,1.2066,13.09262,2.56802,19.47438,4.42578,18.97787,5.52451,34.12759,16.617,42.63385,34.47806,7.27335,15.27225,17.81937,24.74371,34.48593,27.7316,5.99887,1.07541,11.55576,3.89001,18.28464,7.35684-15.82404-28.06128-34.15527-52.36145-53.86761-75.67145-11.62668-13.74869-23.82542-26.97647-36.44427-39.82306-1.86557-1.89923-3.2202-2.43393-5.90271-1.18338-6.55412,3.05554-13.6517,.86185-17.65988-4.87469-3.91092-5.59735-3.45563-12.89404,1.12202-17.98331,4.51752-5.0224,11.94637-6.26462,17.80098-2.97659,6.03564,3.38977,8.77995,10.15802,6.64018,17.1351-.66051,2.15372-.60698,3.53189,1.08566,5.24246,30.19402,30.51419,57.90572,63.07135,81.2404,99.20831,.22916,.35492,.65396,.58344,1.52237,1.33215-12.68579-43.44669-16.40381-87.48663-17.80405-131.99863-.69611,0-1.23495-.17084-1.53659,.02454-13.01614,8.43152-31.9212,2.09378-39.86751-13.92911-1.48708-2.99854-3.44328-4.922-6.31819-6.57266-13.55142-7.78049-21.04391-27.24554-16.42274-42.19498,1.95793-6.33392,5.68529-11.35199,11.89755-14.01097,2.48727-1.06461,3.48289-2.61661,3.86411-5.14969,0,0,3.19571-20.41718,19.76123-21.93366Zm172.27653,317.13314c5.46841,0,10.95227,.26581,16.40219-.05127,14.62891-.85095,29.5434-.89813,43.33679-6.34088,15.21893-6.00525,30.36551-6.51166,46.07846-3.08295,11.21533,2.44733,22.44635,5.37,34.00629,5.31055,29.92853-.15393,56.28998-9.42816,77.30127-31.5285,15.08197-15.86377,33.40491-24.93399,55.18469-27.32678,14.85437-1.63193,29.63342-1.0405,44.36639,.87747,24.56207,3.19754,44.27625-4.1218,58.10364-25.46436,4.24811-6.55692,9.21704-12.65155,13.93317-18.89957,9.14227-12.11182,21.17017-16.39624,36.1001-13.82318,12.20111,2.10281,24.52362,2.38321,36.83948,.52261,21.41754-3.23566,36.78412-14.53406,46.01074-34.19077,1.43823-3.06415,1.27979-4.36539-2.60895-4.19629-9.4884,.41251-18.99969,.33258-28.4834,.81277-60.37256,3.05695-119.93945,11.90619-179.00366,24.61969-89.28387,19.21829-173.6236,51.12729-252.44916,97.39124-1.14542,.67227-2.44778,1.21609-3.35294,2.13794-12.53387,12.76566-26.24564,24.00986-41.76511,33.23227ZM530.33501,6.31982c-10.98877,.06288-17.98108,5.25214-22.17444,14.55643-8.20728,18.21049-16.27081,36.48595-24.51556,54.67935-23.69244,52.28087-44.43588,105.98497-74.67444,155.10686-1.63409,2.65448-.34601,3.74826,1.3252,5.29813,20.89157,19.37503,41.80688,38.7254,62.54871,58.25989,2.95285,2.78104,3.95667,2.40628,5.89642-.92331,11.67773-20.04492,21.81982-40.82483,29.96008-62.53384,23.55811-62.82623,44.9505-126.40955,65.18433-190.36658,3.36945-10.65048,7.79498-18.15637,19.07263-20.39357,.638-.12657,1.20721-.56725,1.83783-.77029,1.70117-.54779,1.90973-1.2838,.92181-2.89931-3.07172-5.02312-8.50311-7.60178-14.42352-6.93282-8.19025,.92546-13.79382,5.06285-17.24738,12.56029-4.66595,10.12936-9.63123,20.12061-14.41437,30.19656-.8678,1.82797-1.77948,2.51918-3.83832,1.4742-1.90814-.96846-2.41669-1.89842-1.26135-3.81789,8.84613-14.69693,11.65833-32.96149,26.69104-44.32642-8.85913-1.51576-15.35352,.92639-19.98883,8.43625-6.83447,11.07275-12.82867,22.5849-18.41736,34.3044-1.58478,3.32327-3.28967,2.61392-5.29272,1.09315-2.08838-1.58557,.03424-3.06689,.63525-4.29964,6.39386-13.11458,12.99634-26.12383,21.38812-38.62013-8.12134-1.16737-13.99365,1.37112-17.78217,7.99724-5.37048,9.39307-10.50397,18.9214-15.78003,28.36887-.8689,1.55573-1.06024,3.98329-4.17804,2.4379-3.26587-1.6188-1.64105-3.30846-.6615-5.14375,6.01691-11.27357,11.85187-22.64931,19.1886-33.74196Zm-207.99731,383.19524c-9.32742-4.36456-16.71936-10.41797-22.19095-18.6778-1.11652-1.68555-2.71649-2.2854-4.46655-2.909-48.21808-17.18027-92.40872-41.82422-133.42705-72.27786-17.37672-12.90112-33.71719-27.17038-51.78348-39.17041-28.69922-19.06281-58.62267-35.57596-92.16507-44.61456-7.44486-2.00616-9.19073-1.07428-11.53355,6.26672-.64962,2.03555-1.0254,4.22614-1.11031,6.36218-.31835,8.00839,2.79339,14.96075,7.13269,21.42307,7.17193,10.68079,16.81827,18.82849,27.21493,26.17267,12.39538,8.7561,25.52734,16.32425,38.80442,23.61639,8.38079,4.60294,12.39323,11.36465,11.65105,20.81226-1.46162,18.60553,7.87888,31.03033,22.94488,40.02155,14.45103,8.62427,30.32182,11.65295,46.99168,10.89697,6.9899-.31708,13.97324-.80908,20.97133-.34656,13.37659,.88416,24.40437,6.15662,32.21387,17.37103,4.56599,6.55676,9.06256,13.16254,13.6817,19.68146,5.41931,7.64844,13.03455,11.86072,22.16803,13.04199,29.01962,3.75323,52.78391-6.68103,72.90237-27.6701ZM616.84661,101.92387c-18.59985-.36679-36.55402-.69495-54.50623-1.10327-2.64313-.06009-2.79248,1.93115-3.35187,3.57108-4.13452,12.11993-8.0835,24.3049-12.35138,36.37729-14.51898,41.06909-27.39862,82.75281-45.69312,122.41428-.2442,.52933-.17328,1.20398-.30164,2.22623,2.27454-.18735,4.24744-.27814,6.20123-.52197,17.50287-2.18414,34.97552-4.66025,52.51953-6.43286,5.09155-.5144,7.42267-2.51508,9.32178-6.99335,14.57843-34.37744,25.55054-69.96741,35.92688-105.76025,4.15784-14.34229,8.04742-28.76236,12.2348-43.77716ZM294.64229,361.64286c-2.37784-6.56219-4.81161-12.32324-5.6777-18.3999-1.11624-7.83173-5.74637-12.8829-11.86496-17.02539-4.88086-3.30453-10.29529-5.80054-15.98688-6.84146-18.55649-3.39377-30.69031-13.71158-38.74536-30.86804-7.80138-16.61615-22.05904-26.82031-39.78972-31.7211-6.72687-1.85928-13.5918-3.26132-20.44489-4.61279-12.96294-2.55637-24.25577-7.88504-32.98836-18.20197-3.09813-3.66016-6.82314-6.85278-10.55025-9.90707-21.58337-17.68704-45.80274-28.30841-74.28537-26.78116-9.32466,.50003-18.28613,2.64987-26.57822,8.17068,7.67847,2.52841,14.85604,4.6181,21.83571,7.23547,39.73783,14.90186,74.85173,37.62451,107.62369,64.19931,28.16507,22.83905,58.24356,42.73203,90.38513,59.51135,18.15878,9.47964,36.75241,17.97009,57.06717,25.24207Zm157.45337,24.40973c106.28525,8.04584,213.35233,16.15094,320.41946,24.25598-1.83411-3.18646-3.9292-5.51917-6.35376-7.43494-36.70319-29.00031-77.87109-47.67627-124.54651-53.35464-9.78302-1.19019-17.84619,.89072-26.16785,8.12039-27.64172,24.01447-60.40448,31.80652-96.06293,23.71533-23.3905-5.30743-45.96484-6.72534-67.28842,4.69788Zm-46.0903,5.82178c8.11148,6.43262,14.18594,14.35962,20.20316,22.34192,2.8067,3.72333,5.67142,7.40295,8.51459,11.09875,5.9212,7.69684,13.75806,12.40894,23.06381,14.87665,11.96606,3.17322,24.14447,3.35577,36.18933,1.34619,9.71948-1.62164,18.16644,.29828,25.96136,5.91235,6.21472,4.47595,12.32306,9.09973,18.47137,13.66766,9.60944,7.13934,20.13715,9.80396,32.03619,7.28015,5.87817-1.24683,11.73712-2.47058,17.33215-4.63824,6.92627-2.68359,14.00037-3.98737,21.46155-3.89484,8.2738,.10254,16.0741-2.10498,23.50867-6.17163-70.62799-38.82007-145.52563-61.18732-226.74219-61.81897Zm35.26053-319.01553c-2.72635-3.69026-4.77716-6.98447-8.17545-8.98579-4.31564-2.54163-8.73215-3.35774-13.16077-.41011-4.01913,2.67508-5.61765,7.56586-4.42297,12.85887,.94089,4.1683,2.88562,7.93919,5.8826,10.84377,2.84018,2.75256,2.01483,4.29628-.35428,6.76564-3.87814,4.04224-8.87564,7.21385-11.08206,12.6692-5.11786,12.65387-10.14542,25.3461-16.017,37.67514-.96774,2.03214-1.00943,3.03674,1.26239,4.18961,13.2822,6.74002,21.53339,18.00391,27.51239,31.22189,1.17007,2.58664,2.2515,5.21335,3.49777,8.10968,5.59445-8.8988,59.25168-128.17984,61.37845-136.40874-9.28503,1.35411-18.34631,.57925-27.1171-2.22633-3.27817-1.04861-4.65594-.03471-6.22458,2.65887-4.01096,6.88754-8.34924,13.58447-12.9794,21.0383Zm-224.43777,57.25436c.99918,6.48245-1.73267,13.76361,3.31815,16.35577,5.78598,2.96948,12.67712,.18173,17.9805-4.35809,3.10403-2.6571,5.01047-6.18515,7.15427-9.55704,3.20764-5.04526,7.37463-6.44254,12.81616-4.27701,5.26334,2.0946,8.77911,5.83307,10.48608,11.30402,1.7363,5.56476,.81613,10.93988-1.25751,16.11417-1.20309,3.00195-.25409,3.41391,2.45578,3.21701,13.68524-.99448,27.36444-14.96378,27.90222-28.50613,.06903-1.73773-.04218-2.47562-2.21246-2.79642-13.8334-2.04459-26.98636-17.2189-27.49658-31.39162-.25107-6.97322,3.897-10.97549,10.83603-10.46373,4.68832,.34575,8.63745,2.36543,12.07996,5.43658,5.52649,4.93036,8.76581,11.23767,10.74567,18.2612,.65796,2.3342,1.19849,4.70151,1.92993,7.59692,3.37927-4.01593,5.09143-8.13306,6.02505-12.50296,3.64417-17.05652-.22522-32.48378-11.05997-45.97105-16.21304-20.18237-46.37735-18.60683-61.91241,6.20619-1.12802,1.80168-1.01596,2.66014,.90753,3.86661,10.61981,6.661,17.90829,16.2867,23.50528,27.29079,2.20441,4.33409,3.6106,8.95235,3.72781,13.88454,.29895,12.57712-8.01743,18.8432-19.89221,14.77112-2.15195-.73798-3.04227-.70795-4.22861,1.42523-6.39691,11.50244-12.58694,12.79071-23.81067,4.0939ZM632.22954,12.56343c-16.53235,5.91867-31.83667,11.41196-47.15527,16.86542-2.11261,.75211-2.34497,2.62968-2.90381,4.33858-6.20648,18.98-12.27899,38.00537-18.70197,56.91171-1.43988,4.23827-.07898,4.58305,3.57806,4.63026,18.48883,.23856,36.97461,.71378,55.4624,1.05222,1.38409,.02534,2.93494,.6468,4.20654-.55542-16.93402-21.84555-11.67688-59.82481,5.51404-83.24277Zm-154.05463,33.75868c3.49768-.04709,6.99878-.03014,10.41754-.96875,1.11713-.30673,2.15961-.51851,2.97528-1.57635,6.69891-8.68805,5.97589-14.83467-2.81415-21.34447-2.25256-1.66823-4.73633-3.21837-7.35114-4.17258-20.09323-7.33263-38.98621-5.81577-55.74295,8.48875-9.90729,8.45738-17.25418,18.93642-22.32553,30.91432-4.72617,11.16251-4.79111,22.45743,.70767,33.35561,5.147,10.20091,3.54321,7.80705,10.37988,1.63683,1.95273-1.76241,1.71625-3.12785,.26605-5.0246-2.03143-2.65698-3.42419-5.70073-4.37369-8.92252-1.26678-4.29839-1.23132-8.56024,.59723-12.69693,4.68976-10.60959,16.83984-13.3013,26.80392-5.59535,2.86786,2.21799,3.88443,1.70715,5.45773-1.0567,2.79825-4.91591,6.06546-9.56717,8.81052-14.51019,1.55344-2.79729,2.96851-3.63116,6.18793-2.31401,6.35565,2.60033,13.09686,3.77827,20.00369,3.78694Zm224.40637,49.82922c-10.18915-12.97896-11.95905-27.14761-10.64301-41.8671,1.31696-14.72884,5.96179-28.42888,15.51471-41.63869-9.43091,3.37502-17.49207,6.38156-25.64551,9.11256-2.90735,.97382-2.1283,2.74043-1.8053,4.71935,3.99066,24.45178-.98267,46.59093-17.07837,65.83698-.42999,.51414-.84888,1.00214-.20007,1.91508,12.7793,.61618,25.73126,1.24069,39.85754,1.92181Zm-80.6684-38.44168c-.05438,11.21782,.96027,21.40118,6.71289,30.47351,6.00684,9.47343,15.2298,11.52925,24.40265,5.15523,11.25391-7.82014,16.46399-19.50209,20.19666-32.6846-20.73242,10.963-35.88623,10.15219-51.31219-2.94414Zm75.46497,.94539c-.18726,12.13571,1.16803,22.83186,8.31543,31.93274,5.36475,6.83107,12.96698,8.42285,20.4939,4.00368,13.25214-7.78056,18.59052-20.76033,22.83997-35.56895-17.12213,12.47429-36.03912,12.39015-51.64929-.36746Zm53.45685-17.24612c.51544-10.8315-2.1864-21.54343-6.91321-28.1832-5.41254-7.60313-13.14716-10.05968-20.88245-5.89874-12.94604,6.96397-18.4137,19.24353-23.05585,33.21982,20.36957-12.80682,40.60406-10.51588,50.8515,.86212Zm-75.19257-1.46512c.04572-8.8857-1.45422-17.04207-5.73303-24.52635-6.3692-11.14062-16.73096-13.26215-26.78864-5.32753-10.08398,7.9554-15.0675,19.00542-18.56549,31.37671,16.89746-10.92863,33.50067-14.38391,51.08716-1.52283ZM229.20635,86.84492c.27319,2.63489-.66287,4.90842,2.04404,6.22668,8.99081,4.37846,12.49323,12.02826,12.24954,21.62396-.06088,2.39777,.71536,3.70053,2.87241,4.53363,3.23547,1.24954,6.49573,2.02271,9.47867-.29782,3.23563-2.51712,3.80762-6.26215,3.26309-9.96835-2.00497-13.64633-10.25412-23.5977-20.03738-32.42645-6.01306-5.42641-6.72949-5.05266-8.60666,3.03471-.59933,2.58192-.91559,5.22955-1.2637,7.27364Zm-10.14601,8.86577c-4.08791,0-5.73407,.99638-5.00174,5.12538,.3756,2.11768,.30272,4.31357,.65793,6.4364,1.27077,7.59473,3.08038,15.03183,8.7141,20.75226,3.19,3.23911,6.3689,3.02783,9.52829-.20972,4.00476-4.10382,4.51761-7.38269,1.4642-10.50314-4.63797-4.73978-8.07315-10.24799-9.37296-16.70502-.76794-3.81502,.08956-4.89616-5.98982-4.89616Zm59.37901-4.48607c-4.72665-.16394-5.38654,2.75626-4.75031,5.97643,2.03009,10.27431,7.4285,18.3307,16.58624,23.64238,1.11365,.64594,2.48056,.9404,3.77054,1.17908,2.63974,.4884,4.13913-.27289,3.72476-3.39508-1.0217-7.69821-3.15652-14.94281-8.25348-21.00502-2.98044-3.54486-6.6925-5.91205-11.07776-6.39778Zm-70.64328,6.92447c-7.0826,3.45612-9.55159,9.60123-9.69238,16.65704-.22945,11.4989,3.89128,21.16824,13.00822,28.32413,2.93483-15.24179-1.00217-29.72284-3.31584-44.98117Zm13.69571,54.94321c3.24902,6.44812,7.81107,10.72485,14.12354,13.08826,6.45868,2.41821,12.72717,2.23355,18.48236-1.97638,.99496-.72784,3.29926-1.5538,.81873-3.18817-5.78998-3.81491-9.06757-9.39453-11.03925-16.5437-6.38272,6.36661-13.74738,8.45078-22.38538,8.62Zm570.10318-1.36478c-.03979,6.10275,4.86353,11.20255,10.94012,11.37851,6.26477,.18137,11.56512-4.95142,11.60559-11.23874,.04047-6.28598-5.2168-11.52039-11.46039-11.41052-6.06024,.1066-11.04559,5.17535-11.08533,11.27075Zm-69.1698-113.85034c-7.53796,.86607-14.11914,3.17038-19.35083,8.45227-2.80646,2.83345-3.47833,6.22752-.37543,9.2459,6.17712,6.00871,13.89038,7.16301,22.83734,7.10478-8.80847-8.60876-9.31665-13.23856-3.11108-24.80295Zm-73.82849-.2601c-7.90338,1.23335-14.51471,3.17586-19.70343,8.33241-3.427,3.40575-3.42059,6.83517-.33234,10.08485,4.36835,4.59676,15.59125,7.69081,21.87677,6.0313-8.33606-7.98262-9.00012-14.28835-1.841-24.44856Zm-384.88452,109.35712c.14664-7.14133-2.65826-11.82504-7.58246-13.49356-3.52689-1.19507-5.88284-.12781-6.55884,3.66333-.71817,4.02762-.103,7.9064,1.78268,11.55389,1.93625,3.7453,4.68826,8.68185,8.51041,7.87601,3.4537-.72821,3.48123-6.49484,3.84821-9.59967Zm-76.67497,44.40198c.02982-4.87335-3.87213-8.93912-8.67938-9.04373-4.82126-.10498-8.85933,3.78308-9.00638,8.67181-.1564,5.20044,3.74315,9.24747,8.88599,9.22202,4.8882-.0242,8.76967-3.92786,8.79977-8.8501Zm39.85991-120.16203c-8.09047,2.9686-10.11922,9.25168-11.69931,15.82578-.32094,1.3353-.06198,3.74228,3.45048,3.7795,2.7033,.02864,4.81829,.39958,4.81829-2.56223,.68692-5.44246,1.66458-10.78162,3.43054-17.04305Zm4.25116,28.41789c.65106,5.36594,2.72943,9.08978,6.57791,11.69455-.43738-4.98813-2.33975-8.88989-6.57791-11.69455Z" fill="#080808"/>
</svg>